<?xml version="1.0" encoding="UTF-8"?>
<svg width="30px" height="33px" viewBox="0 0 30 33" version="1.1" xmlns="http://www.w3.org/2000/svg">
    <!-- Generator: Sketch 50.2 (55047) - http://www.bohemiancoding.com/sketch -->
    <title>ico-faq</title>
    <desc>Created with Sketch.</desc>
    <defs></defs>
    <g id="Assets" stroke="none" stroke-width="1" fill="none" fill-rule="evenodd">
        <g id="icons" transform="translate(-93.000000, -23.000000)" fill="#F701B5">
            <path d="M109.503116,43.625 C109.588176,43.625 109.651858,43.6465417 109.695071,43.689625 C109.737828,43.7327083 109.758752,43.7863333 109.758752,43.8505 L109.758752,46.8800833 C109.758752,46.96625 109.731915,47.0304167 109.67915,47.0730417 C109.625931,47.1165833 109.555881,47.1376667 109.471275,47.1376667 L106.368611,47.1376667 C106.28355,47.1376667 106.213955,47.1110833 106.160736,47.057 C106.107516,47.0038333 106.081134,46.94425 106.081134,46.8800833 L106.081134,43.8825833 C106.081134,43.7973333 106.107516,43.7327083 106.160736,43.689625 C106.213955,43.6465417 106.28355,43.625 106.368611,43.625 L109.503116,43.625 Z M108.128046,28.9940833 C109.683699,28.9940833 110.942323,29.4455417 111.901642,30.3475417 C112.861416,31.25 113.341304,32.356875 113.341304,33.6667917 C113.341304,34.3332083 113.223947,34.935 112.989235,35.4717083 C112.754067,36.008875 112.41337,36.5465 111.965779,37.0832083 L110.23864,39.3712083 C110.025306,39.6287917 109.887026,39.86575 109.822889,40.08025 C109.758752,40.2952083 109.726912,40.5853333 109.726912,40.9501667 L109.726912,41.5945833 C109.726912,41.68075 109.700074,41.745375 109.646855,41.788 C109.593635,41.8315417 109.52404,41.852625 109.438979,41.852625 L106.432748,41.852625 C106.347687,41.852625 106.277637,41.8260417 106.224872,41.7719583 C106.171653,41.7187917 106.144815,41.6592083 106.144815,41.5945833 L106.144815,40.4991667 C106.144815,40.0050833 106.208952,39.5967083 106.33677,39.2745 C106.464588,38.9522917 106.656543,38.6195417 106.912635,38.2753333 L108.735751,35.890625 C109.097827,35.4827083 109.353919,35.1174167 109.503116,34.79475 C109.651858,34.4725417 109.726912,34.1503333 109.726912,33.828125 C109.726912,33.3125 109.577714,32.8935833 109.27932,32.571375 C108.980471,32.2491667 108.554258,32.0878333 107.999773,32.0878333 C107.488045,32.0878333 107.06729,32.2546667 106.7366,32.5874167 C106.405455,32.9210833 106.187573,33.3665833 106.081134,33.9248333 C106.059755,34.0325417 106.016997,34.1077083 105.95286,34.1503333 C105.889179,34.193875 105.814125,34.2044167 105.729065,34.1824167 L102.914788,33.7635 C102.829272,33.7635 102.770594,33.7314167 102.738753,33.6667917 C102.706912,33.602625 102.690537,33.5274583 102.690537,33.4412917 C102.903416,32.0878333 103.479281,31.0084583 104.417676,30.2027083 C105.356072,29.3969583 106.592862,28.9940833 108.128046,28.9940833 L108.128046,28.9940833 Z M115.707989,51.06925 L119.290085,53.7440833 L118.106515,49.23225 L117.850879,48.1368333 C117.850879,48.11575 117.861341,48.1042917 117.88272,48.1042917 C118.54319,47.4387917 119.129971,46.71875 119.641699,45.9450833 C120.153427,45.171875 120.585098,44.3610833 120.937167,43.51225 C121.288781,42.663875 121.549422,41.7829583 121.720452,40.8695 C121.891028,39.9569583 121.976544,39.0279167 121.976544,38.0819167 C121.976544,37.1368333 121.891028,36.2077917 121.720452,35.2943333 C121.549422,34.3817917 121.288781,33.500875 120.937167,32.6520417 C120.585098,31.8036667 120.153427,30.9924167 119.641699,30.21875 C119.129971,29.4455417 118.54319,28.7365 117.88272,28.091625 C117.221794,27.426125 116.507195,26.834875 115.73983,26.31925 C114.97201,25.803625 114.167346,25.3686667 113.324928,25.014375 C112.48251,24.659625 111.614165,24.3915 110.718527,24.208625 C109.822889,24.0262083 108.906327,23.9345417 107.967932,23.9345417 C107.029536,23.9345417 106.107516,24.0262083 105.201416,24.208625 C104.294861,24.3915 103.421057,24.659625 102.578639,25.014375 C101.736221,25.3686667 100.931557,25.803625 100.164193,26.31925 C99.3963732,26.834875 98.6817734,27.426125 98.021303,28.091625 C97.3603778,28.7365 96.7740512,29.4455417 96.2623232,30.21875 C95.7505951,30.9924167 95.3234728,31.8036667 94.9827756,32.6520417 C94.6416236,33.500875 94.3800737,34.3817917 94.1990357,35.2943333 C94.0179977,36.2077917 93.9274787,37.1368333 93.9274787,38.0819167 C93.9274787,39.0279167 94.0179977,39.9569583 94.1990357,40.8695 C94.3800737,41.7829583 94.647082,42.669375 94.998696,43.5282917 C95.3507649,44.388125 95.782436,45.199375 96.294164,45.9615833 C96.8058921,46.72425 97.3922187,47.4387917 98.0531439,48.1042917 C98.7136142,48.7707083 99.4286689,49.3615 100.196034,49.877125 C100.963853,50.39275 101.768062,50.8277083 102.610935,51.182 C103.452898,51.53675 104.326702,51.8057917 105.233257,51.98775 C106.139357,52.170625 107.061377,52.2618333 107.999773,52.2618333 C109.193805,52.2618333 110.371461,52.106 111.534108,51.7943333 C112.696299,51.4835833 113.788895,51.026625 114.812351,50.4248333 L115.707989,51.06925 Z M118.68238,48.6524583 L118.906176,48.491125 L120.85711,56 L114.78051,51.5527917 L114.812351,51.5527917 C113.767516,52.0899583 112.669462,52.503375 111.518187,52.7935 C110.366458,53.083625 109.193805,53.2284583 107.999773,53.2284583 C106.976316,53.2284583 105.985156,53.1267083 105.025382,52.9222917 C104.066062,52.7183333 103.138584,52.4286667 102.242946,52.052375 C101.347308,51.6765417 100.494428,51.2145417 99.6843055,50.666375 C98.8737283,50.1186667 98.1172805,49.4902917 97.4135976,48.78125 C96.6885358,48.051125 96.0544479,47.2724167 95.5104241,46.4446667 C94.9668552,45.6182917 94.507892,44.7529583 94.135354,43.8505 C93.7623611,42.9480417 93.4794323,42.0135 93.2879323,41.046875 C93.0959774,40.08025 93,39.0920833 93,38.0819167 C93,37.0726667 93.090519,36.0840417 93.271557,35.1174167 C93.452595,34.1503333 93.7300653,33.2157917 94.1035131,32.3133333 C94.4760511,31.4113333 94.9350143,30.5524167 95.4785832,29.7352083 C96.0221521,28.919375 96.6457781,28.15625 97.349461,27.4472083 C98.0531439,26.7170833 98.815505,26.0777083 99.6365442,25.53 C100.456674,24.9818333 101.320471,24.5202917 102.227025,24.144 C103.133125,23.768625 104.066062,23.4835417 105.025382,23.290125 C105.985156,23.0967083 106.9654,23 107.967932,23 C108.948175,23 109.918866,23.0967083 110.878186,23.290125 C111.83796,23.4835417 112.765439,23.768625 113.661077,24.144 C114.55626,24.5202917 115.414598,24.9818333 116.235637,25.53 C117.055767,26.0777083 117.8295,26.7170833 118.554107,27.4472083 C119.25779,28.15625 119.886419,28.919375 120.44136,29.7352083 C120.995846,30.5524167 121.464816,31.4062917 121.848726,32.2972917 C122.23218,33.1892083 122.520113,34.11825 122.712068,35.084875 C122.904023,36.0519583 123,37.0506667 123,38.0819167 C123,39.0920833 122.904023,40.0752083 122.712068,41.0308333 C122.520113,41.9869167 122.243097,42.9109167 121.880566,43.802375 C121.517581,44.6942917 121.069989,45.5481667 120.537337,46.3644583 C120.00423,47.1812083 119.386063,47.9434167 118.68238,48.6524583 L118.68238,48.6524583 Z" id="ico-faq"></path>
        </g>
    </g>
</svg>