<?xml version="1.0" encoding="UTF-8"?>
<svg width="30px" height="30px" viewBox="0 0 30 30" version="1.1" xmlns="http://www.w3.org/2000/svg">
    <!-- Generator: Sketch 50.2 (55047) - http://www.bohemiancoding.com/sketch -->
    <title>ico-user-profile</title>
    <desc>Created with Sketch.</desc>
    <defs></defs>
    <g id="Assets" stroke="none" stroke-width="1" fill="none" fill-rule="evenodd">
        <g id="icons" transform="translate(-36.000000, -24.000000)" fill="#96C31E">
            <path d="M50.94125,29.8121347 C52.07375,29.8121347 53.0504167,30.1598942 53.8708333,30.8541609 C54.69125,31.5492625 55.11125,32.8355135 55.1308333,34.7141664 C55.1308333,36.0647092 54.725,37.2144448 53.915,38.1633732 C53.1041667,39.1127192 52.1133333,39.5869747 50.94125,39.5869747 C49.7883333,39.5869747 48.8070833,39.1127192 47.9970833,38.1633732 C47.18625,37.2144448 46.78125,36.0647092 46.78125,34.7141664 C46.78125,32.8355135 47.18625,31.5492625 47.9970833,30.8541609 C48.8070833,30.1598942 49.7883333,29.8121347 50.94125,29.8121347 M60.84375,48.9510159 C61.5070833,48.2859727 62.0933333,47.5666574 62.60125,46.7934873 C63.1091667,46.0207348 63.53875,45.2133315 63.8904167,44.371695 C64.2420833,43.5304759 64.5058333,42.6546062 64.6816667,41.7445032 C64.8570833,40.8344002 64.945,39.9096855 64.945,38.970359 C64.945,38.0310326 64.8570833,37.1117451 64.6816667,36.2112441 C64.5058333,35.3115781 64.2420833,34.4352908 63.8904167,33.5840523 C63.53875,32.7328138 63.1091667,31.9254105 62.60125,31.1622599 C62.0933333,30.3991094 61.5070833,29.6852213 60.84375,29.0197606 C60.1795833,28.3739215 59.4666667,27.7919566 58.705,27.2730309 C57.9433333,26.7549402 57.1475,26.3241024 56.3170833,25.9813526 C55.4866667,25.6394378 54.6179167,25.3751739 53.71,25.1889786 C52.8016667,25.0032007 51.87875,24.910103 50.94125,24.910103 C50.0229167,24.910103 49.11,25.0032007 48.2020833,25.1889786 C47.29375,25.3751739 46.4191667,25.6394378 45.58,25.9813526 C44.74,26.3241024 43.9391667,26.7549402 43.1775,27.2730309 C42.4158333,27.7919566 41.7025,28.3739215 41.03875,29.0197606 C40.375,29.6852213 39.78875,30.3991094 39.28125,31.1622599 C38.7729167,31.9254105 38.34375,32.7282215 37.9920833,33.5694406 C37.6404167,34.4110771 37.3766667,35.2865294 37.2008333,36.1966323 C37.0254167,37.1067353 36.9375,38.0310326 36.9375,38.970359 C36.9375,39.9096855 37.0254167,40.8344002 37.2008333,41.7445032 C37.3766667,42.6546062 37.6404167,43.5350682 37.9920833,44.3863067 C38.34375,45.2375452 38.7729167,46.0449485 39.28125,46.8080991 C39.78875,47.5712497 40.375,48.2859727 41.03875,48.9510159 C41.195,49.0879488 41.3508333,49.2298915 41.5075,49.3764264 C41.66375,49.5233788 41.83,49.6657389 42.0058333,49.8022544 L42.0058333,48.7456165 L42.0058333,48.1290008 C42.025,47.9139994 42.1033333,47.4297245 42.24,46.6761759 C42.37625,45.9230448 42.6545833,45.09602 43.075,44.1955191 C43.495,43.295853 44.105,42.4195658 44.90625,41.5683273 C45.7066667,40.7170888 46.7708333,40.1059004 48.0995833,39.7339271 C48.47,40.1059004 48.9004167,40.4089897 49.3883333,40.6436126 C49.87625,40.8786529 50.3845833,40.9959644 50.9120833,40.9959644 C51.4583333,40.9959644 51.9666667,40.8886724 52.4354167,40.6732535 C52.9041667,40.4578347 53.3333333,40.1547453 53.7245833,39.7631506 C54.9941667,40.1547453 56.0241667,40.771361 56.8154167,41.61258 C57.60625,42.4542165 58.23125,43.3200668 58.6904167,44.2101308 C59.14875,45.1010298 59.4666667,45.9180351 59.6425,46.6611467 C59.8183333,47.4055107 59.9158333,47.894378 59.9354167,48.1290008 L59.9354167,48.7305873 L59.9354167,49.7730309 C60.0916667,49.636098 60.2429167,49.499165 60.3895833,49.3618146 C60.5358333,49.2252992 60.6870833,49.0879488 60.84375,48.9510159 M61.5175,28.403145 C62.2204167,29.1078486 62.8504167,29.8664069 63.4070833,30.677985 C63.96375,31.490398 64.4325,32.3416365 64.8133333,33.2317005 C65.1941667,34.1225995 65.4870833,35.0473142 65.6920833,36.0058447 C65.8975,36.9647927 66,37.9533816 66,38.970359 C66,39.9881714 65.9016667,40.9813526 65.7070833,41.9499026 C65.5116667,42.91887 65.2279167,43.8536042 64.8570833,44.7532702 C64.48625,45.6537712 64.0266667,46.5100195 63.4804167,47.3215976 C62.9333333,48.1340106 62.3083333,48.8921514 61.6054167,49.596855 C60.8825,50.3207626 60.11125,50.9569997 59.2908333,51.5047314 C58.4704167,52.0528806 57.61625,52.5125244 56.7275,52.8844976 C55.8383333,53.255636 54.9108333,53.5345116 53.9441667,53.7211244 C52.9775,53.9064848 51.9858333,54 50.9704167,54 C49.9745833,54 48.9929167,53.9064848 48.02625,53.7211244 C47.0595833,53.5345116 46.1316667,53.2514612 45.2429167,52.8694684 C44.35375,52.4878931 43.5,52.0236571 42.6795833,51.4755079 C41.8591667,50.9277762 41.0975,50.3011411 40.3945833,49.596855 C39.69125,48.8921514 39.0658333,48.1290008 38.5195833,47.3069858 C37.9725,46.4853883 37.5129167,45.6241303 37.1425,44.7240468 C36.77125,43.8239633 36.4879167,42.8892291 36.2929167,41.9206791 C36.0975,40.9521291 36,39.96855 36,38.970359 C36,37.9725856 36.0920833,36.9944336 36.2783333,36.0350682 C36.46375,35.0765377 36.7420833,34.1468132 37.1129167,33.2467298 C37.48375,32.3466463 37.9379167,31.490398 38.4754167,30.677985 C39.0125,29.8664069 39.6325,29.1078486 40.3358333,28.403145 C41.0579167,27.6796549 41.8345833,27.0434178 42.665,26.4952686 C43.495,25.9475369 44.3591667,25.4874756 45.2575,25.1155024 C46.1558333,24.7439466 47.08375,24.465071 48.0408333,24.2788756 C48.9975,24.0930977 49.9641667,24 50.94125,24 C51.9375,24 52.91375,24.0930977 53.8708333,24.2788756 C54.8275,24.465071 55.7504167,24.7439466 56.6395833,25.1155024 C57.5283333,25.4874756 58.3825,25.9475369 59.2029167,26.4952686 C60.0233333,27.0434178 60.7945833,27.6796549 61.5175,28.403145" id="ico-user-profile"></path>
        </g>
    </g>
</svg>